<?xml version="1.0" encoding="UTF-8"?>
<svg width="64" height="64" viewBox="0 0 64 64" xmlns="http://www.w3.org/2000/svg">
  <!-- Background -->
  <rect width="64" height="64" fill="#000000"/>
  
  <!-- Main chip body (dark gray square with rounded corners) -->
  <rect x="8" y="8" width="48" height="48" rx="4" fill="#444444"/>
  
  <!-- Central yellow core -->
  <rect x="20" y="20" width="24" height="24" fill="#FFD700"/>
  
  <!-- Internal connection lines (black lines from yellow core to gray frame) -->
  <!-- Top side connections -->
  <rect x="20" y="16" width="2" height="4" fill="#000000"/>
  <rect x="26" y="16" width="2" height="4" fill="#000000"/>
  <rect x="32" y="16" width="2" height="4" fill="#000000"/>
  <rect x="38" y="16" width="2" height="4" fill="#000000"/>
  
  <!-- Bottom side connections -->
  <rect x="20" y="44" width="2" height="4" fill="#000000"/>
  <rect x="26" y="44" width="2" height="4" fill="#000000"/>
  <rect x="32" y="44" width="2" height="4" fill="#000000"/>
  <rect x="38" y="44" width="2" height="4" fill="#000000"/>
  
  <!-- Left side connections -->
  <rect x="16" y="20" width="4" height="2" fill="#000000"/>
  <rect x="16" y="26" width="4" height="2" fill="#000000"/>
  <rect x="16" y="32" width="4" height="2" fill="#000000"/>
  <rect x="16" y="38" width="4" height="2" fill="#000000"/>
  
  <!-- Right side connections -->
  <rect x="44" y="20" width="4" height="2" fill="#000000"/>
  <rect x="44" y="26" width="4" height="2" fill="#000000"/>
  <rect x="44" y="32" width="4" height="2" fill="#000000"/>
  <rect x="44" y="38" width="4" height="2" fill="#000000"/>
  
  <!-- External connection pins (pink-red) -->
  <!-- Top pin -->
  <rect x="30" y="4" width="4" height="4" rx="2" fill="#FF6B6B"/>
  
  <!-- Bottom pin -->
  <rect x="30" y="56" width="4" height="4" rx="2" fill="#FF6B6B"/>
  
  <!-- Left pin -->
  <rect x="4" y="30" width="4" height="4" rx="2" fill="#FF6B6B"/>
  
  <!-- Right pin -->
  <rect x="56" y="30" width="4" height="4" rx="2" fill="#FF6B6B"/>
</svg> 